<?xml version="1.0" encoding="utf-8"?>
<!-- Generator: Adobe Illustrator 24.0.0, SVG Export Plug-In . SVG Version: 6.00 Build 0)  -->
<svg version="1.1" id="圖層_1" xmlns="http://www.w3.org/2000/svg" xmlns:xlink="http://www.w3.org/1999/xlink" x="0px" y="0px"
	 viewBox="0 0 24 24" style="enable-background:new 0 0 24 24;" xml:space="preserve">
<style type="text/css">
	.st0{fill:none;}
	.st1{fill:none;stroke:#533131;stroke-width:2;stroke-linecap:round;stroke-linejoin:round;}
</style>
<path class="st0" d="M0,0h24v24H0V0z"/>
<path class="st1" d="M10,5c0-1.1,0.9-2,2-2s2,0.9,2,2c2.3,1.1,3.9,3.4,4,6v3c0.2,1.3,0.9,2.4,2,3H4c1.1-0.6,1.8-1.7,2-3v-3
	C6.1,8.4,7.7,6.1,10,5"/>
<path class="st1" d="M9,17v1c0,1.7,1.3,3,3,3s3-1.3,3-3v-1"/>
<path class="st1" d="M21,6.7C20.3,5.3,19.4,4,18.2,3"/>
<path class="st1" d="M3,6.7C3.7,5.3,4.6,4,5.8,3"/>
</svg>
