<svg width="22" height="22" viewBox="0 0 22 22" fill="none" xmlns="http://www.w3.org/2000/svg">
<path d="M15.5833 3.20838C15.5833 3.08682 15.535 2.97025 15.4491 2.88429C15.3631 2.79834 15.2466 2.75005 15.125 2.75005H12.8333C11.6794 2.69257 10.5495 3.09416 9.69074 3.86708C8.83194 4.64 8.31397 5.72142 8.25 6.87505V9.35005H5.95833C5.83678 9.35005 5.7202 9.39834 5.63424 9.48429C5.54829 9.57025 5.5 9.68683 5.5 9.80838V12.1917C5.5 12.3133 5.54829 12.4299 5.63424 12.5158C5.7202 12.6018 5.83678 12.6501 5.95833 12.6501H8.25V18.7917C8.25 18.9133 8.29829 19.0299 8.38424 19.1158C8.4702 19.2018 8.58678 19.2501 8.70833 19.2501H11.4583C11.5799 19.2501 11.6965 19.2018 11.7824 19.1158C11.8684 19.0299 11.9167 18.9133 11.9167 18.7917V12.6501H14.3183C14.4203 12.6515 14.5198 12.619 14.6011 12.5575C14.6825 12.4961 14.741 12.4093 14.7675 12.3109L15.4275 9.92755C15.4457 9.85983 15.4482 9.78883 15.4347 9.72001C15.4211 9.65119 15.392 9.58639 15.3495 9.53061C15.307 9.47482 15.2523 9.42953 15.1895 9.39823C15.1267 9.36693 15.0576 9.35044 14.9875 9.35005H11.9167V6.87505C11.9395 6.64815 12.046 6.4379 12.2155 6.28535C12.385 6.1328 12.6053 6.04891 12.8333 6.05005H15.125C15.2466 6.05005 15.3631 6.00176 15.4491 5.91581C15.535 5.82985 15.5833 5.71327 15.5833 5.59172V3.20838Z" fill="#45B6C2"/>
</svg>
