<svg width="52" height="52" viewBox="0 0 52 52" fill="none" xmlns="http://www.w3.org/2000/svg">
<path d="M36.4167 8.29178C36.4167 8.01551 36.3069 7.75056 36.1116 7.55521C35.9162 7.35986 35.6513 7.25011 35.375 7.25011H30.1667C27.544 7.11947 24.9762 8.03218 23.0244 9.78882C21.0726 11.5455 19.8954 14.0032 19.75 16.6251V22.2501H14.5417C14.2654 22.2501 14.0004 22.3599 13.8051 22.5552C13.6097 22.7506 13.5 23.0155 13.5 23.2918V28.7085C13.5 28.9847 13.6097 29.2497 13.8051 29.445C14.0004 29.6404 14.2654 29.7501 14.5417 29.7501H19.75V43.7085C19.75 43.9847 19.8597 44.2497 20.0551 44.445C20.2504 44.6404 20.5154 44.7501 20.7917 44.7501H27.0417C27.3179 44.7501 27.5829 44.6404 27.7782 44.445C27.9736 44.2497 28.0833 43.9847 28.0833 43.7085V29.7501H33.5417C33.7733 29.7534 33.9995 29.6795 34.1843 29.5399C34.3692 29.4002 34.5023 29.203 34.5625 28.9793L36.0625 23.5626C36.1039 23.4087 36.1095 23.2473 36.0788 23.0909C36.0481 22.9345 35.9818 22.7873 35.8852 22.6605C35.7886 22.5337 35.6642 22.4308 35.5216 22.3596C35.379 22.2885 35.2219 22.251 35.0625 22.2501H28.0833V16.6251C28.1352 16.1094 28.3773 15.6316 28.7625 15.2849C29.1478 14.9382 29.6484 14.7475 30.1667 14.7501H35.375C35.6513 14.7501 35.9162 14.6404 36.1116 14.445C36.3069 14.2497 36.4167 13.9847 36.4167 13.7084V8.29178Z" fill="#264F91"/>
</svg>
