<svg width="32" height="32" viewBox="0 0 32 32" fill="none" xmlns="http://www.w3.org/2000/svg">
<path d="M26.7002 30.6666C26.2482 30.6666 25.8908 30.4946 25.5722 30.1253C25.2562 29.7586 25.1015 29.3279 25.1015 28.8159C25.1015 28.2946 25.2482 27.8813 25.5695 27.5093C25.8868 27.1439 26.2575 26.9653 26.6975 26.9653C27.1455 26.9653 27.5028 27.1373 27.8228 27.5093C28.1402 27.8759 28.2948 28.3039 28.2922 28.8146C28.2922 29.3359 28.1428 29.7519 27.8215 30.1266C27.5135 30.4893 27.1495 30.6666 26.7108 30.6666H26.7002ZM9.50016 30.6666C9.05083 30.6666 8.69216 30.4946 8.37216 30.1253C8.0575 29.7586 7.90283 29.3279 7.90283 28.8159C7.90283 28.2999 8.05483 27.8759 8.37083 27.5093C8.68816 27.1439 9.0575 26.9653 9.49883 26.9653C9.9455 26.9653 10.3042 27.1373 10.6242 27.5093C10.9415 27.8759 11.0948 28.3039 11.0922 28.8146C11.0922 29.3279 10.9375 29.7573 10.6215 30.1266C10.3082 30.4959 9.95483 30.6666 9.51083 30.6666H9.50016ZM10.6082 24.8146C9.6575 24.8146 8.60816 24.7213 8.03883 24.0186C7.60683 23.4893 7.63216 22.8359 8.12816 21.7666L10.0255 17.6973L4.1535 3.29725H2.17883C1.92683 3.29725 1.73883 3.21192 1.57483 3.01859C1.4095 2.82792 1.3335 2.60392 1.3335 2.31325C1.3335 2.02125 1.40683 1.80525 1.57216 1.61325C1.73883 1.41859 1.9255 1.33325 2.17883 1.33325H4.6775C4.83216 1.33325 4.98016 1.38259 5.1295 1.48525C5.2655 1.58125 5.3615 1.70925 5.43216 1.88792L6.6615 4.90392H29.7722C30.1148 4.90392 30.3375 5.05859 30.5202 5.42125C30.7082 5.79459 30.7162 6.11592 30.5455 6.49459L25.0935 17.9079C24.8708 18.3813 24.5815 18.7359 24.2122 18.9919C23.8455 19.2439 23.4495 19.3693 23.0095 19.3693H11.1482L9.4295 22.8519H27.5162C27.7708 22.8519 27.9588 22.9359 28.1215 23.1293C28.2895 23.3226 28.3628 23.5386 28.3602 23.8293C28.3602 24.1213 28.2842 24.3466 28.1202 24.5386C27.9562 24.7306 27.7722 24.8133 27.5202 24.8133H10.6068L10.6082 24.8146ZM11.8122 17.4053H23.4162L28.4042 6.86925H7.45883L11.8122 17.4053Z" fill="#45B6C2" stroke="#45B6C2" stroke-width="0.25" stroke-miterlimit="10"/>
</svg>
