<svg width="22" height="22" viewBox="0 0 22 22" fill="none" xmlns="http://www.w3.org/2000/svg">
<path d="M6.85848 1.06925C5.79446 1.11947 5.06774 1.28989 4.43268 1.53873C3.77528 1.79501 3.21802 2.13847 2.66364 2.69511C2.10862 3.25207 1.76778 3.81033 1.51344 4.46839C1.2672 5.10505 1.10034 5.83213 1.05334 6.89681C1.00668 7.96345 0.996 8.30365 1.0012 11.0191C1.00638 13.7343 1.01836 14.0751 1.06922 15.1421C1.12008 16.2058 1.28988 16.9322 1.5387 17.5676C1.7953 18.225 2.1384 18.7819 2.69536 19.3367C3.252 19.8913 3.81058 20.2319 4.46894 20.4865C5.10496 20.7325 5.83234 20.9 6.89668 20.9466C7.96328 20.9936 8.3038 21.004 11.0186 20.9988C13.7347 20.9936 14.0752 20.9816 15.1419 20.9311C16.2059 20.8802 16.932 20.7098 17.5677 20.4616C18.2251 20.2043 18.7823 19.8618 19.3367 19.3049C19.8911 18.7482 20.2319 18.1896 20.4863 17.5313C20.7325 16.8953 20.9 16.1679 20.9463 15.1042C20.993 14.0369 21.004 13.696 20.9988 10.9809C20.9936 8.26541 20.9813 7.92521 20.9308 6.85891C20.8803 5.79423 20.7098 5.06813 20.4613 4.43243C20.2044 3.77503 19.8616 3.21839 19.305 2.66337C18.7483 2.10899 18.1898 1.76749 17.5314 1.51379C16.8951 1.26755 16.168 1.09971 15.1037 1.05369C14.0371 1.00639 13.6965 0.99603 10.9808 1.00121C8.26564 1.00639 7.92512 1.01805 6.8585 1.06925M6.97514 19.1468C6.00022 19.1043 5.4708 18.9423 5.11798 18.8066C4.65076 18.6258 4.31738 18.409 3.96648 18.0607C3.61624 17.7111 3.39882 17.3787 3.21642 16.9124C3.07936 16.5596 2.91444 16.0308 2.86876 15.0559C2.81918 14.0019 2.80786 13.6857 2.80298 11.0155C2.7978 8.34607 2.8075 8.02985 2.85352 6.97489C2.8953 6.00061 3.0583 5.47053 3.19372 5.11801C3.3745 4.65015 3.59062 4.31739 3.93956 3.96651C4.28914 3.61561 4.62158 3.39885 5.08814 3.21643C5.44066 3.07873 5.96944 2.91509 6.94402 2.86877C7.99864 2.81887 8.31454 2.80817 10.984 2.80299C13.6541 2.79779 13.9703 2.80721 15.0252 2.85353C15.9995 2.89597 16.5296 3.05733 16.8818 3.19373C17.3493 3.37451 17.6827 3.58999 18.0333 3.93959C18.3838 4.28919 18.6012 4.62097 18.7836 5.08851C18.9213 5.44005 19.085 5.96947 19.131 6.94377C19.1812 7.99841 19.1925 8.31463 19.1974 10.9841C19.2026 13.6542 19.1929 13.9704 19.1465 15.0248C19.1041 15.9997 18.9424 16.5294 18.8063 16.8826C18.6255 17.3495 18.4094 17.6829 18.0601 18.0338C17.7109 18.3834 17.3785 18.6015 16.9116 18.7839C16.5597 18.9213 16.0303 19.0852 15.0563 19.1315C14.0017 19.1811 13.6858 19.1924 11.0154 19.1973C8.34596 19.2025 8.03006 19.1925 6.97512 19.1468M15.1273 5.65457C15.1286 6.31683 15.6671 6.85307 16.3293 6.85177C16.9919 6.85047 17.5281 6.31229 17.5272 5.65003C17.5259 4.98777 16.9874 4.45121 16.3248 4.45251C15.6622 4.45381 15.126 4.99229 15.1273 5.65457ZM5.86544 11.0097C5.87094 13.8457 8.17426 16.1397 11.0096 16.1342C13.8452 16.1287 16.1405 13.826 16.135 10.99C16.1294 8.15493 13.8258 5.85967 10.9898 5.86519C8.15448 5.87069 5.85992 8.17437 5.86544 11.0097ZM7.66654 11.0062C7.6633 9.16549 9.15306 7.67021 10.9934 7.66697C12.834 7.66341 14.3296 9.15253 14.3332 10.9935C14.3368 12.8345 12.847 14.3295 11.006 14.333C9.1657 14.3366 7.6701 12.8472 7.66654 11.0062Z" fill="#45B6C2"/>
</svg>
