<svg width="80" height="80" viewBox="0 0 80 80" fill="none" xmlns="http://www.w3.org/2000/svg">
<path d="M31.3028 19.1454C29.0684 19.2509 27.5423 19.6088 26.2086 20.1313C24.8281 20.6695 23.6578 21.3908 22.4936 22.5597C21.3281 23.7293 20.6123 24.9017 20.0782 26.2836C19.5611 27.6206 19.2107 29.1475 19.112 31.3833C19.014 33.6232 18.9916 34.3377 19.0025 40.0402C19.0134 45.742 19.0386 46.4578 19.1454 48.6984C19.2522 50.9322 19.6087 52.4577 20.1313 53.7919C20.6701 55.1725 21.3906 56.3421 22.5603 57.507C23.7292 58.6718 24.9022 59.3869 26.2848 59.9218C27.6204 60.4382 29.1479 60.79 31.383 60.8879C33.6229 60.9866 34.338 61.0083 40.0391 60.9975C45.7429 60.9866 46.458 60.9614 48.6979 60.8552C50.9323 60.7484 52.4571 60.3906 53.7921 59.8693C55.1726 59.3291 56.3429 58.6099 57.5071 57.4403C58.6712 56.2713 59.387 55.0983 59.9211 53.7157C60.4382 52.3801 60.79 50.8525 60.8873 48.6188C60.9853 46.3775 61.0084 45.6617 60.9975 39.9599C60.9866 34.2574 60.9608 33.5429 60.8547 31.3037C60.7485 29.0679 60.3906 27.5431 59.8688 26.2081C59.3292 24.8276 58.6094 23.6586 57.4405 22.4931C56.2715 21.3289 55.0985 20.6117 53.7159 20.079C52.3796 19.5619 50.8528 19.2094 48.6177 19.1127C46.3778 19.0134 45.6627 18.9917 39.9596 19.0025C34.2578 19.0134 33.5428 19.0379 31.3029 19.1454M31.5478 57.1083C29.5005 57.0191 28.3887 56.6789 27.6478 56.3938C26.6666 56.0142 25.9665 55.559 25.2296 54.8275C24.4941 54.0934 24.0375 53.3952 23.6545 52.4161C23.3667 51.6752 23.0203 50.5647 22.9244 48.5174C22.8203 46.304 22.7965 45.6399 22.7863 40.0327C22.7754 34.4267 22.7958 33.7627 22.8924 31.5473C22.9801 29.5013 23.3224 28.3881 23.6068 27.6478C23.9865 26.6653 24.4403 25.9665 25.1731 25.2297C25.9072 24.4928 26.6053 24.0376 27.5851 23.6545C28.3254 23.3653 29.4358 23.0217 31.4824 22.9244C33.6971 22.8196 34.3605 22.7972 39.9664 22.7863C45.5735 22.7754 46.2376 22.7951 48.453 22.8924C50.499 22.9815 51.6121 23.3204 52.3517 23.6068C53.3335 23.9865 54.0336 24.439 54.7698 25.1731C55.506 25.9073 55.9626 26.604 56.3456 27.5859C56.6348 28.3241 56.9784 29.4359 57.0751 31.4819C57.1805 33.6967 57.2043 34.3607 57.2145 39.9666C57.2254 45.5739 57.205 46.2379 57.1077 48.452C57.0186 50.4994 56.679 51.6118 56.3933 52.3535C56.0136 53.334 55.5597 54.0341 54.8263 54.771C54.0928 55.5052 53.3948 55.9631 52.4143 56.3462C51.6754 56.6347 50.5636 56.9789 48.5183 57.0763C46.3036 57.1803 45.6402 57.2041 40.0323 57.2144C34.4265 57.2253 33.7631 57.2042 31.5478 57.1083M48.6674 28.7746C48.6701 30.1653 49.8009 31.2914 51.1916 31.2887C52.583 31.286 53.7091 30.1558 53.7071 28.7651C53.7043 27.3743 52.5735 26.2475 51.1821 26.2503C49.7907 26.253 48.6646 27.3838 48.6674 28.7746ZM29.2174 40.0204C29.229 45.9761 34.0659 50.7934 40.0201 50.7818C45.975 50.7702 50.795 45.9346 50.7834 39.9789C50.7718 34.0254 45.9342 29.2053 39.9786 29.2169C34.0244 29.2284 29.2058 34.0662 29.2174 40.0204ZM32.9997 40.013C32.9929 36.1475 36.1214 33.0074 39.9861 33.0006C43.8515 32.9932 46.9922 36.1203 46.9997 39.9864C47.0072 43.8525 43.8787 46.9919 40.0126 46.9994C36.148 47.0069 33.0072 43.8791 32.9997 40.013Z" fill="url(#paint0_linear_241_262)"/>
<defs>
<linearGradient id="paint0_linear_241_262" x1="56.993" y1="22.0804" x2="24.8626" y2="60.8255" gradientUnits="userSpaceOnUse">
<stop stop-color="#A634A3"/>
<stop offset="0.5" stop-color="#D62A80"/>
<stop offset="0.75" stop-color="#ED4F4F"/>
<stop offset="1" stop-color="#F7B44B"/>
</linearGradient>
</defs>
</svg>
