<svg width="240" height="65" viewBox="0 0 240 65" fill="none" xmlns="http://www.w3.org/2000/svg">
<g clip-path="url(#clip0_87_233)">
<path d="M22.6569 2.0127C23.4587 2.01278 23.8593 2.41488 23.6588 3.11914L16.6412 35.5186C16.4407 36.2228 15.9393 36.5244 15.1373 36.5244H1.00256C0.200568 36.5244 -0.100606 36.2229 -0.000366211 35.5186L1.40393 29.3809C1.50419 28.6765 2.00525 28.375 2.80725 28.375H5.51331C6.41556 28.375 6.91696 27.9719 7.01721 27.3682L12.3307 3.01855C12.5312 2.31422 13.0326 2.0127 13.8346 2.0127H22.6569ZM66.7672 0C67.5689 9.91588e-05 67.8693 0.402375 67.7692 1.00586L67.3688 3.01855C67.1683 3.72283 67.5689 4.02436 68.3707 4.02441H96.441C97.243 4.02441 97.6445 4.42753 97.444 5.03125L96.2408 11.1689C95.7396 13.2819 94.9375 17.3062 94.7369 17.9102L90.9274 35.5186C90.7269 36.2229 90.2255 36.5244 89.4235 36.5244H66.1656C65.3636 36.5244 65.0625 36.2229 65.1627 35.5186L66.566 29.3809C66.6663 28.6765 67.1683 28.375 67.9703 28.375H80.5016C81.4036 28.3749 81.9053 28.0724 82.0055 27.3682L82.7067 24.3496C82.907 23.6455 82.5063 23.3439 81.7047 23.3438H69.8746C69.0729 23.3437 68.7717 23.0419 68.8717 22.3379L69.9752 17.2061C70.0755 16.5017 70.5765 16.1992 71.3785 16.1992H87.2184L88.1207 12.1748H66.6666C65.7646 12.1748 65.2631 12.5772 65.1627 13.1807L63.358 21.3311C63.2578 22.0354 62.7567 22.3379 61.9547 22.3379H53.5338C52.7318 22.3379 52.4306 22.0354 52.5309 21.3311L56.942 1.00586C57.0424 0.301724 57.5444 0 58.3463 0H66.7672ZM36.9928 2.0127C36.9928 2.0127 36.3909 2.61621 36.2906 2.61621C35.589 3.32062 35.2884 5.53381 36.8922 6.74121C37.594 7.34493 37.995 7.64743 40.1002 7.74805C42.1048 7.84864 43.4078 6.64142 43.3082 7.24414L40.8024 27.3682C40.7021 28.0725 41.1029 28.375 41.9049 28.375H46.2155C47.0175 28.375 47.3186 28.6766 47.2184 29.2803L45.8141 35.418C45.7138 36.1222 45.2127 36.4238 44.4108 36.4238H29.8746C28.9724 36.4238 28.5713 36.1223 28.6715 35.418L32.7819 3.01855C32.8821 2.3143 33.3833 2.01276 34.1852 2.0127H36.9928ZM238.998 3.92383C239.8 3.92388 240.101 4.32699 239.9 4.93066L233.785 35.5186C233.685 36.1222 233.283 36.4238 232.582 36.4238H205.214C204.512 36.4238 204.211 36.1223 204.311 35.5186L205.414 29.7832C205.514 29.0789 205.915 28.7773 206.617 28.7773H223.759C224.461 28.7773 224.963 28.4748 225.063 27.8711L229.574 4.93066C229.674 4.22633 230.176 3.92383 230.878 3.92383H238.998ZM193.684 4.02441C194.386 4.02445 194.687 4.42756 194.587 5.03125L193.484 10.7666C193.384 11.3702 192.882 11.6719 192.18 11.6719V11.5713H176.641L175.839 15.3945H193.584C194.285 15.3945 194.586 15.6971 194.486 16.3008L193.283 22.1367C193.182 22.7401 192.781 23.042 192.08 23.042H175.839C175.138 23.042 174.637 23.3437 174.537 23.9473L173.734 27.7705C173.634 28.3742 173.935 28.6767 174.636 28.6768L190.878 28.2744C191.579 28.2746 191.879 28.6767 191.779 29.2803L190.676 35.0156C190.576 35.6192 190.075 35.9208 189.374 35.9209L163.409 36.3232C162.707 36.3232 162.406 36.0217 162.506 35.418L164.812 23.9473C164.912 23.3437 164.611 23.042 163.91 23.042H155.288C154.586 23.0419 154.286 22.7401 154.386 22.1367L155.489 16.4014C155.589 15.7977 156.09 15.4952 156.792 15.4951H165.614L166.416 11.6719H159.799C159.098 11.6719 158.797 11.3701 158.897 10.7666L160 5.03125C160.1 4.32692 160.602 4.02441 161.303 4.02441H193.684ZM143.358 14.1875C144.16 14.1875 144.561 14.4891 144.361 15.1934L143.057 21.2305C142.957 21.9347 142.456 22.2372 141.554 22.2373H105.063C104.261 22.2373 103.86 21.9348 104.06 21.2305L105.363 15.1934C105.664 14.489 106.065 14.1875 106.967 14.1875H143.358ZM218.446 3.92383C219.148 3.92383 219.449 4.2264 219.348 4.72949L216.641 16.0986C216.541 16.6017 216.04 16.9043 215.339 16.9043H207.318C206.616 16.9042 206.315 16.7023 206.416 16.0986L209.123 4.72949C209.223 4.2264 209.725 3.92383 210.426 3.92383H218.446ZM40.2008 1.50977C42.005 1.50992 43.4086 2.71659 43.4088 4.125C43.4088 5.53358 42.0051 6.74106 40.2008 6.74121C38.3963 6.74121 36.9928 5.53367 36.9928 4.125C36.9931 2.7165 38.3965 1.50977 40.2008 1.50977ZM46.6168 0C48.0202 0.000134291 49.1223 0.905966 49.0221 2.0127C49.0219 3.11928 47.9198 4.02427 46.6168 4.02441C45.3137 4.02441 44.2108 3.11936 44.2106 2.0127C44.2106 0.905884 45.3136 0 46.6168 0Z" fill="#533131"/>
<mask id="mask0_87_233" style="mask-type:luminance" maskUnits="userSpaceOnUse" x="7" y="43" width="226" height="22">
<path d="M232.882 43.9707H7.1178V65.0001H232.882V43.9707Z" fill="white"/>
</mask>
<g mask="url(#mask0_87_233)">
<path d="M24.5614 58.3592C26.2657 58.4598 26.4662 58.3592 27.7695 57.8561C27.7695 59.8685 27.569 61.2771 27.2682 62.1827C26.9675 63.0883 26.4662 63.692 25.7644 63.8932C25.0627 64.1951 24.0602 64.2957 22.6567 64.2957C20.9524 64.3963 18.8472 64.3963 16.3409 64.3963C15.1379 64.3963 13.4336 64.3963 11.0276 64.2957C9.8246 64.2957 8.82209 63.8932 8.12034 63.1889C7.41858 62.4846 7.01758 61.1765 7.01758 59.2648V44.8762H27.4687V56.3468H21.8547V55.8437H12.5314V57.6549C12.5314 58.0573 12.5314 58.2586 12.6316 58.4598C12.7319 58.661 12.8321 58.7617 12.9324 58.7617C13.0326 58.7617 13.3334 58.8623 13.6341 58.8623H20.8522C21.2532 58.8623 21.5539 58.7617 21.6542 58.5604C21.8547 58.3592 21.8547 58.158 21.8547 57.7555C21.8547 57.4536 21.8547 57.1518 21.7544 56.7493C22.7569 57.7555 22.7569 58.2586 24.5614 58.3592ZM14.8371 49.4041H12.6316V51.3159H14.8371V49.4041ZM19.6492 51.3159H21.8547V49.4041H19.6492V51.3159Z" fill="#533131"/>
</g>
<mask id="mask1_87_233" style="mask-type:luminance" maskUnits="userSpaceOnUse" x="7" y="43" width="226" height="22">
<path d="M232.882 43.9707H7.1178V65.0001H232.882V43.9707Z" fill="white"/>
</mask>
<g mask="url(#mask1_87_233)">
<path d="M51.1278 52.5234H50.0251V53.3284H50.6266V57.2525H50.0251V60.9754C50.0251 62.0822 49.9248 62.8872 49.6241 63.2897C49.3233 63.6921 48.7218 63.994 47.9198 64.1952C47.0176 64.2959 45.5138 64.3965 43.4085 64.3965C43.4085 63.3903 43.3083 62.5853 43.208 62.0822L41.7043 63.3903C41.0025 62.4847 40.401 61.5791 39.7995 60.9754C39.198 60.3717 38.5965 59.6674 37.8947 59.1643L40 57.2525H38.2958V53.3284H45.213V52.5234H37.8947V51.2154H36.8922V53.3284C37.0927 53.3284 37.3935 53.2277 37.8947 53.2277V57.8562L36.8922 58.0575V60.2711C36.8922 61.4785 36.6917 62.2835 36.391 62.8872C36.0902 63.4909 35.4887 63.8934 34.5865 64.0946C33.6842 64.2959 32.381 64.4971 30.4762 64.5977C31.6792 62.7866 31.0777 60.8748 29.2732 59.4661C30.4762 59.4661 31.2782 59.4661 31.6792 59.4661C32.0802 59.4661 32.381 59.3655 32.4812 59.2649C32.5815 59.1643 32.5815 58.963 32.5815 58.6612V58.5606C31.8797 58.6612 30.777 58.7618 29.2732 58.8624C29.1729 56.85 29.0727 55.1395 28.8722 53.8315C29.5739 53.8315 30.1755 53.8315 30.5765 53.8315C30.2757 53.429 29.8747 53.0265 29.3734 52.5234L28.8722 52.0203C29.4737 49.9073 29.6742 47.8949 29.6742 45.8825H32.0802V46.8887H32.5815V44.5745H36.8922V46.8887H37.8947V49.5048H41.9048V48.4986H38.396V45.1782H41.9048V44.4739H46.6166V45.1782H50.4261V48.4986H46.6166V49.5048H51.1278V52.5234ZM32.782 51.2154H32.0802C31.98 52.2216 31.7795 53.0265 31.579 53.7308H32.782V51.2154ZM45.3133 57.2525H41.7043C42.406 57.9569 43.208 58.8624 43.9098 59.8686C44.3108 59.8686 44.5113 59.9692 44.6115 59.9692C44.9123 59.9692 45.1128 59.9692 45.213 59.8686C45.3133 59.768 45.3133 59.6674 45.3133 59.3655V57.2525Z" fill="#533131"/>
</g>
<mask id="mask2_87_233" style="mask-type:luminance" maskUnits="userSpaceOnUse" x="7" y="43" width="226" height="22">
<path d="M232.882 43.9707H7.1178V65.0001H232.882V43.9707Z" fill="white"/>
</mask>
<g mask="url(#mask2_87_233)">
<path d="M72.6818 60.6736H73.6843V64.3965H52.2307V60.6736H53.2332V56.4476H53.7344C53.2332 56.347 52.5314 56.2464 51.6292 56.1457C51.9299 55.2402 52.1304 54.234 52.2307 53.1272C52.3309 52.0204 52.4312 50.4104 52.4312 48.2974V45.0776H61.554C61.4537 44.7758 61.4537 44.4739 61.4537 44.3733H66.1655L66.2657 45.0776H68.6718L69.4738 44.3733C70.0753 44.4739 70.8773 44.7758 71.8798 45.0776H73.584L73.4838 48.6999H70.4763C70.8773 48.8005 71.4788 49.0018 72.1805 49.1024L72.6818 49.203C72.381 49.9074 71.8798 50.6117 71.178 51.4166C72.0803 51.7185 72.9825 51.9197 73.7845 52.0204C73.8848 52.8253 73.8848 53.429 73.8848 53.7309C73.8848 54.1334 73.7845 54.6364 73.6843 55.1395C73.584 55.8439 73.2833 56.2464 72.782 56.5482V60.6736H72.6818ZM56.9424 56.4476H57.6442C57.9449 55.6426 58.0452 54.6364 57.1429 54.4352C57.1429 54.8377 57.0427 55.542 56.9424 56.4476ZM57.3434 50.8129C57.3434 51.0142 57.2432 52.8253 57.2432 53.2278C57.5439 53.2278 57.7444 53.1272 57.9449 53.1272C58.1454 53.0265 58.2457 53.0265 58.3459 52.9259C58.3459 52.8253 58.4462 52.8253 58.4462 52.7247C58.4462 52.6241 58.5464 52.6241 58.5464 52.5234C58.5464 52.4228 58.6467 50.8129 58.6467 50.7123H57.3434V50.8129ZM57.3434 48.6999V49.6055H62.6567L62.4562 48.6999H57.3434ZM59.1479 58.7618H57.9449V60.6736H59.1479V58.7618ZM60.5515 56.4476H63.4587C62.9575 55.9445 62.8572 55.4414 62.757 53.8315C62.6567 55.1395 61.6542 56.1457 60.5515 56.4476ZM63.559 58.7618H62.356V60.6736H63.559V58.7618ZM62.8572 49.8067L62.6567 53.1272C62.9575 53.0265 63.4587 52.4228 63.96 52.0204C63.6592 51.4166 63.2582 50.6117 62.8572 49.8067ZM68.772 56.4476C68.0702 56.1457 67.3685 55.8439 66.767 55.2402C66.0652 55.7433 65.564 56.1457 64.9625 56.4476H68.772ZM68.0703 58.7618H66.8672V60.6736H68.0703V58.7618ZM66.366 48.6999L67.569 49.6055C68.772 49.5049 69.6743 49.0018 69.8748 48.6999H66.366ZM70.6768 52.6241C70.6768 52.4228 70.6768 52.2216 70.5765 51.9197C70.4763 52.121 69.3735 53.0265 68.9725 53.429C69.2733 53.5296 70.1755 53.3284 70.4763 52.9259C70.6768 52.8253 70.6768 52.8253 70.6768 52.6241Z" fill="#533131"/>
</g>
<mask id="mask3_87_233" style="mask-type:luminance" maskUnits="userSpaceOnUse" x="7" y="43" width="226" height="22">
<path d="M232.882 43.9707H7.1178V65.0001H232.882V43.9707Z" fill="white"/>
</mask>
<g mask="url(#mask3_87_233)">
<path d="M83.609 61.1765L82.005 64.3963C81.4035 63.3901 80.9023 62.6858 80.5013 62.1827C79.8998 62.6858 79.2983 63.1889 78.4963 63.5913C77.6943 63.9938 76.792 64.4969 75.7895 64.8994C76.2907 63.692 76.5915 62.5852 76.391 61.7802C76.1905 60.9752 76.0902 60.4722 74.386 59.2647L75.188 59.0635C76.1905 58.8622 76.8923 58.661 77.2933 58.5604C76.4913 57.9567 75.7895 57.4536 75.0877 57.2523C75.589 55.3406 75.99 53.2276 76.1905 51.0139H75.0877V45.8824H76.1905C76.1905 45.2787 76.1905 44.7756 76.0903 44.2725H80.3008V45.8824H83.9098C83.9098 48.8003 83.8095 51.1146 83.609 53.0263C83.5088 54.9381 83.208 56.548 82.807 58.0573C83.0075 58.1579 83.1078 58.2585 83.208 58.4598C83.5088 57.9567 83.8095 57.5542 83.9098 57.2523C84.1103 56.8499 84.3108 56.3468 84.5113 55.6424C84.7118 54.9381 84.9123 54.0325 85.0126 53.1269C85.1128 52.2214 85.2131 51.1146 85.3133 50.0078H84.3108V44.9768H94.9374C94.9374 46.4861 94.7369 47.8948 94.6366 49.404H96.2406V57.7554C96.2406 59.8684 96.0401 61.3777 95.7394 62.1827C95.4386 63.0882 94.8371 63.5913 94.0351 63.8932C93.2331 64.1951 91.8296 64.3963 89.7243 64.5975C90.3258 63.1889 90.5263 62.0821 90.1253 61.2771C89.6241 60.1703 88.6216 59.466 88.3208 58.661C88.3208 58.7616 88.2206 58.8622 88.2206 59.0635C88.2206 59.1641 88.1203 59.3653 88.1203 59.466C87.9198 60.1703 87.6191 60.8746 87.3183 61.4783C87.0176 62.0821 86.6166 62.887 86.0151 63.8932C85.9148 64.0944 85.8146 64.1951 85.7143 64.3963C85.6141 64.4969 85.6141 64.5975 85.5138 64.7988C85.1128 63.4907 84.4111 62.3839 83.609 61.1765ZM79.6993 51.0139C79.4988 52.9257 79.3985 54.435 79.198 55.5418L79.7995 55.8437C80.2005 54.6362 80.401 53.0263 80.5013 51.0139H79.6993ZM91.2281 58.5604C91.6291 58.5604 91.9298 58.5604 92.1304 58.4598C92.3309 58.3591 92.4311 58.2585 92.4311 58.0573C92.4311 57.8561 92.5314 57.4536 92.5314 56.9505V53.8313H89.9248C90.0251 53.127 90.1253 52.6239 90.2256 52.2214C90.3258 51.7183 90.4261 51.0139 90.5263 50.1084H89.6241C89.5238 51.8189 89.4236 53.3282 89.2231 54.7369C89.0226 56.1455 88.8221 57.353 88.5213 58.5604C89.8246 58.4598 90.7268 58.5604 91.2281 58.5604Z" fill="#533131"/>
</g>
<mask id="mask4_87_233" style="mask-type:luminance" maskUnits="userSpaceOnUse" x="7" y="43" width="226" height="22">
<path d="M232.882 43.9707H7.1178V65.0001H232.882V43.9707Z" fill="white"/>
</mask>
<g mask="url(#mask4_87_233)">
<path d="M114.586 45.6812H118.998V64.5976H114.386V64.1951H109.073V64.5976H104.461V55.5419L102.456 64.5976L101.955 64.497C99.8497 63.9939 98.2456 63.692 96.9424 63.4908C98.0451 62.2834 99.0476 61.4784 99.3484 60.3716C99.6492 59.3654 99.7494 57.8561 99.8497 56.4474C99.8497 55.9444 99.6491 55.3406 99.4486 54.5357L101.253 54.8375C100.15 54.2338 98.8471 53.7307 97.1429 53.3283L99.7494 49.3035C100.251 49.4041 100.752 49.6053 101.253 49.8066C101.754 50.0078 102.356 50.3097 103.158 50.6115L104.461 51.1146V47.2911L103.058 50.1084C101.253 49.3035 99.2481 48.5992 97.2431 48.2973L99.5489 44.0713C100.251 44.2725 101.353 44.675 103.058 45.2787C103.258 45.3793 103.759 45.5806 104.561 45.8824H108.872V44.5744H114.586V45.6812ZM104.461 51.7183L102.456 55.0388L104.461 55.3406V51.7183ZM110.075 50.5109H109.073V52.7245H110.075V50.5109ZM110.075 57.1518H109.073V59.3654H110.075V57.1518ZM113.383 52.8252H114.386V50.6115H113.383V52.8252ZM113.383 59.3654H114.386V57.0512H113.383V59.3654Z" fill="#533131"/>
</g>
<mask id="mask5_87_233" style="mask-type:luminance" maskUnits="userSpaceOnUse" x="7" y="43" width="226" height="22">
<path d="M232.882 43.9707H7.1178V65.0001H232.882V43.9707Z" fill="white"/>
</mask>
<g mask="url(#mask5_87_233)">
<path d="M140.15 61.6796C139.749 62.4845 139.749 63.2895 139.749 64.7988C138.145 64.4969 136.642 63.9938 135.338 63.2895C134.035 62.5852 132.631 61.6796 131.228 60.5728L130.827 60.9752C129.824 61.9814 128.621 62.7864 127.118 63.3901C125.614 63.9938 124.11 64.4969 122.606 64.7988C123.007 63.3901 123.108 62.9876 122.406 61.579C121.604 60.0697 120.902 60.0697 119.9 59.1641C120.702 59.1641 121.203 59.0635 121.604 59.0635C121.504 57.9567 121.403 57.0511 121.203 56.2461C121.002 55.4412 120.601 54.7369 120.1 54.1331C121.203 54.1331 122.105 53.7307 122.707 52.9257C122.907 52.7245 123.007 52.4226 123.007 52.2214C123.007 52.0201 123.108 51.6177 123.108 51.2152V50.5109H127.017V51.2152V52.1208C127.519 52.5232 128.12 52.8251 128.822 53.127V50.209H120.601V45.2787H128.722V44.2725H133.834V45.178H141.955V50.1084H133.834V52.5232C133.834 52.8251 133.834 53.3282 133.834 53.9319C134.436 53.7307 134.837 53.4288 135.038 53.0263C135.138 52.8251 135.238 52.6239 135.238 52.322C135.238 52.0201 135.238 51.7183 135.238 51.2152V50.5109H139.048V52.2214C139.048 52.4226 139.048 52.6239 139.048 52.7245C140.05 53.2276 141.053 53.5294 142.055 53.7307C141.554 54.3344 141.253 55.1393 140.952 56.1455C140.652 57.1517 140.451 58.1579 140.451 59.1641C141.153 59.2647 141.855 59.2647 142.657 59.2647C141.554 60.0697 140.551 60.774 140.15 61.6796ZM128.521 55.8437C128.722 55.24 128.722 54.5356 128.822 53.7307L127.519 57.5542C126.817 56.9505 126.215 56.548 125.814 56.2461C125.012 57.2523 123.809 58.0573 122.306 58.9629C123.809 58.8622 125.012 58.661 125.915 58.3591C126.817 58.0573 127.418 57.7554 127.92 57.2523C128.12 56.9505 128.321 56.548 128.521 55.8437ZM133.634 54.8375C133.534 55.6424 133.433 56.1455 133.333 56.548C133.834 57.0511 134.536 57.4536 135.238 57.7554C134.737 56.548 134.236 55.5418 133.634 54.8375ZM140.251 59.0635C139.248 58.3592 138.246 57.5542 137.243 56.7492C136.942 57.0511 136.642 57.2523 136.241 57.5542C135.84 57.7554 135.539 57.9567 135.439 58.0573C136.842 58.5604 138.446 58.8622 140.251 59.0635Z" fill="#533131"/>
</g>
<mask id="mask6_87_233" style="mask-type:luminance" maskUnits="userSpaceOnUse" x="7" y="43" width="226" height="22">
<path d="M232.882 43.9707H7.1178V65.0001H232.882V43.9707Z" fill="white"/>
</mask>
<g mask="url(#mask6_87_233)">
<path d="M148.872 46.1842C148.672 51.2152 148.17 56.8499 147.368 62.9876C146.566 62.0821 145.664 61.0759 144.862 60.774C144.06 60.4722 143.258 60.6734 142.155 60.774C142.857 58.5604 143.358 56.3468 143.559 54.0325C143.86 51.7183 143.96 49.1022 143.96 46.1842H148.872ZM162.005 55.743C162.807 55.9443 163.609 56.0449 164.511 56.0449C164.511 58.8622 164.411 60.774 164.311 61.7802C164.21 62.7864 163.809 63.3901 163.308 63.692C162.807 63.9938 161.804 64.1951 160.301 64.3963C158.897 64.4969 157.694 64.5975 156.792 64.5975C155.789 64.5975 154.586 64.4969 153.083 64.3963C151.88 64.2957 150.877 64.0944 150.175 63.8932C149.474 63.692 148.972 63.2895 148.672 62.887C148.371 62.3839 148.17 61.7802 148.17 60.8746C148.17 60.4721 148.17 60.0697 148.17 59.8684L149.474 46.6873H152.581C152.18 45.5805 151.98 44.8762 151.88 44.4737L156.391 44.2725C157.093 46.0836 157.594 47.6935 158.095 49.1022C158.596 50.5108 159.098 52.4226 159.799 54.7369C159.699 54.7369 159.599 54.8375 159.599 54.8375C159.799 54.9381 160.1 55.1393 160.401 55.24C160.2 54.0325 159.9 52.8251 159.499 51.517C159.098 50.3096 158.496 48.4985 157.694 45.983C157.594 45.5805 157.494 45.3793 157.494 45.2787L162.005 44.8762C162.707 46.5867 163.308 48.096 163.709 49.404C164.21 50.7121 164.712 52.6239 165.514 55.1393C164.712 55.24 163.509 55.4412 162.005 55.743ZM159.298 58.1579C159.398 57.8561 159.499 57.353 159.499 56.6486C159.499 56.4474 159.499 55.8437 159.499 54.7369L155.088 55.8437C154.887 54.6362 153.383 49.1022 153.083 47.9954L153.784 57.353C153.784 57.4536 153.784 57.5542 153.784 57.7554C153.784 58.1579 153.885 58.3591 153.985 58.4598C154.185 58.5604 154.386 58.661 154.787 58.661C155.489 58.7616 156.19 58.7616 156.992 58.7616C157.794 58.7616 158.296 58.7616 158.596 58.661C158.997 58.661 159.198 58.4598 159.298 58.1579Z" fill="#533131"/>
</g>
<mask id="mask7_87_233" style="mask-type:luminance" maskUnits="userSpaceOnUse" x="7" y="43" width="226" height="22">
<path d="M232.882 43.9707H7.1178V65.0001H232.882V43.9707Z" fill="white"/>
</mask>
<g mask="url(#mask7_87_233)">
<path d="M187.569 50.4103H186.867L186.967 54.1332H187.669V58.2586H186.967V64.5976H182.857L183.459 58.0574L181.654 58.158C181.654 59.2648 181.554 59.8685 181.454 61.3778C181.353 62.5853 181.253 63.6921 181.554 64.6983C181.253 64.5976 180.652 64.497 180.15 64.2958C179.449 64.0945 178.947 63.8933 178.446 63.8933C177.845 63.7927 177.544 63.8933 177.043 63.8933H170.927V64.6983H166.617V51.819C166.516 51.9196 166.316 52.0202 166.015 52.1209C166.316 50.9134 166.516 50.1085 166.316 49.4041C166.115 48.6998 165.614 47.9955 164.812 47.3918C165.915 47.1905 167.018 46.788 168.02 46.1843C169.023 45.5806 169.825 44.8763 170.326 44.2726H174.937C174.837 44.4738 174.637 44.7757 174.336 45.1781C175.539 45.7818 176.642 46.2849 177.744 46.5868H178.246C178.145 46.1843 178.045 45.5806 177.845 44.5744L181.654 43.9707C181.754 44.7757 181.855 45.6812 181.955 46.5868H182.456C182.657 45.6812 182.757 44.8763 182.757 43.9707L186.566 44.5744C186.366 45.5806 186.266 46.2849 186.165 46.5868H187.268L187.569 50.4103ZM170.125 49.2029C169.825 49.5048 169.424 50.1085 169.123 50.4103H176.441C175.94 50.0079 175.338 49.1023 174.737 48.5992V49.4041H170.226V49.2029H170.125ZM177.243 62.9877C177.845 61.3778 178.145 59.7679 178.246 58.2586H177.644V54.1332H178.346L178.246 50.4103H177.444L177.544 48.4986C177.243 49.1023 177.043 49.706 176.742 50.4103H177.143V58.158H170.927V58.7617H176.942V60.1704H170.927V60.8747H177.143V62.9877H177.243ZM171.028 52.5233V53.7308L175.439 53.6301V52.4227L171.028 52.5233ZM175.338 55.2401L170.927 55.3407V56.5481L175.338 56.4475V55.2401ZM173.835 47.9955L172.732 46.788C171.729 47.4924 171.028 47.7942 170.526 47.9955H173.835ZM181.754 54.1332H183.559V50.4103H181.754V54.1332Z" fill="#533131"/>
</g>
<mask id="mask8_87_233" style="mask-type:luminance" maskUnits="userSpaceOnUse" x="7" y="43" width="226" height="22">
<path d="M232.882 43.9707H7.1178V65.0001H232.882V43.9707Z" fill="white"/>
</mask>
<g mask="url(#mask8_87_233)">
<path d="M211.83 44.5745H221.855V55.3407H216.541V64.3964H211.83V44.5745ZM218.446 47.593H216.642V49.1023H218.446V47.593ZM216.642 52.0203H218.446V50.511H216.642V52.0203ZM222.757 44.5745H232.882V60.3717C232.882 61.7803 232.782 62.6859 232.481 63.189C232.281 63.6921 231.579 63.994 230.677 64.1952C229.674 64.3964 227.87 64.4971 225.363 64.4971C226.065 63.4909 226.266 62.8872 225.965 61.881C225.664 60.8748 224.06 59.6673 223.459 58.8624H226.667C227.168 58.8624 227.569 58.8624 227.769 58.7618C227.97 58.6612 228.17 58.6612 228.17 58.4599C228.271 58.3593 228.271 58.0574 228.271 57.7556V55.3407H222.757V44.5745ZM226.366 49.0017H228.371V47.4924H226.366V49.0017ZM226.366 52.0203H228.371V50.511H226.366V52.0203Z" fill="#533131"/>
</g>
<mask id="mask9_87_233" style="mask-type:luminance" maskUnits="userSpaceOnUse" x="7" y="43" width="226" height="22">
<path d="M232.882 43.9707H7.1178V65.0001H232.882V43.9707Z" fill="white"/>
</mask>
<g mask="url(#mask9_87_233)">
<path d="M210.526 56.9507V60.5729H207.519V63.0884C207.519 63.6921 206.917 64.0946 205.714 64.2959C204.511 64.4971 202.406 64.6983 199.499 64.6983C199.499 64.0946 199.399 63.4909 199.098 62.8872L195.088 64.6983C193.785 63.6921 195.088 62.6859 191.679 61.6798L194.186 60.6736H188.772V57.0513H203.008V56.6488H190.476V48.6999H197.293V48.2974H188.872V45.1782H197.293V44.4739H202.206V45.1782H210.627V48.2974H202.206V48.6999H209.023V56.6488H207.619V57.0513H210.526V56.9507ZM197.193 50.9135H192.882V51.8191H197.193V50.9135ZM197.193 53.3284H192.882V54.0327H197.193V53.3284ZM202.907 60.5729H196.291C197.093 61.2773 197.995 62.0822 199.098 62.7866C198.797 61.9816 198.396 61.3779 197.895 61.076C198.095 61.076 198.396 61.076 198.797 61.076C199.098 61.076 199.399 61.076 199.499 61.1767C200.301 61.1767 200.902 61.2773 201.203 61.2773C201.805 61.2773 202.206 61.2773 202.506 61.1767C202.707 60.9754 202.907 60.7742 202.907 60.5729ZM206.516 51.8191V50.9135H202.005V51.8191H206.516ZM202.005 54.1333H206.516V53.3284H202.005V54.1333Z" fill="#533131"/>
</g>
</g>
<defs>
<clipPath id="clip0_87_233">
<rect width="240" height="65" fill="white"/>
</clipPath>
</defs>
</svg>
